<svg id="Capa_1" enable-background="new 0 0 512 512" height="512" viewBox="0 0 512 512" width="512"
     xmlns="http://www.w3.org/2000/svg">
    <g>
        <g>
            <path d="m147.657 512c-4.204 0-7.611-3.407-7.611-7.612v-73.495c0-4.204 3.408-7.611 7.611-7.611 4.204 0 7.611 3.407 7.611 7.611v73.495c0 4.205-3.408 7.612-7.611 7.612z"
                  fill="#f1f1f4"/>
        </g>
        <path d="m131.441 14.634h32.432v76.477h-32.432z" fill="#90d8f9"/>
        <g fill="#d3effb">
            <path d="m104.328 146.777h86.658c3.144 0 5.693-2.549 5.693-5.693v-38.681l-98.044-12.963v51.644c0 3.144 2.549 5.693 5.693 5.693z"/>
            <path d="m95.028 0h105.257c5.209 0 9.432 4.223 9.432 9.432v10.404c0 5.209-4.223 9.432-9.432 9.432h-105.257c-5.209 0-9.432-4.223-9.432-9.432v-10.404c.001-5.209 4.223-9.432 9.432-9.432z"/>
            <path d="m190.188 146.777v221.89c0-6.412-5.198-11.61-11.61-11.61h-61.842c-6.412 0-11.61 5.198-11.61 11.61v-245.814z"/>
        </g>
        <g>
            <path d="m134.598 399.01c-4.204 0-7.612-3.407-7.612-7.612v-219.25c0-4.204 3.408-7.611 7.612-7.611s7.611 3.407 7.611 7.611v219.25c0 4.205-3.408 7.612-7.611 7.612z"
                  fill="#b1e4f9"/>
        </g>
        <path d="m156.084 93.051v17.105c0 9.015-7.308 16.324-16.324 16.324h-41.125v14.604c0 3.144 2.549 5.693 5.693 5.693h86.658c3.144 0 5.693-2.549 5.693-5.693v-38.681z"
              fill="#b1e4f9"/>
        <path d="m149.593 135.747v170.801c0 16.685-13.526 30.211-30.211 30.211h-14.256v31.907c0-6.412 85.062-6.412 85.062 0v-221.89z"
              fill="#b1e4f9"/>
        <path d="m126.986 364.404c4.735-.271 9.922-.441 15.223-.51v-37.555c-3.943 4.544-9.221 7.899-15.223 9.456z"
              fill="#90d8f9"/>
        <path d="m131.441 391.399 32.432 14.384v20.631c0 8.311-3.301 16.281-9.178 22.158l-4.136 4.136c-1.603 1.603-4.201 1.603-5.803 0l-4.136-4.136c-5.877-5.877-9.178-13.847-9.178-22.158v-35.015z"
              fill="#f4e9cd"/>
        <path d="m263.494 201.027h138.706c2.262 0 4.095 1.834 4.095 4.096v23.628l-146.897 18.272v-41.9c.001-2.262 1.834-4.096 4.096-4.096z"
              fill="#f4e9cd"/>
        <path d="m245.815 305.31v-38.523l174.064 19.235v19.289c0 6.868 1.895 13.599 5.459 19.47 9.315 15.342 14.921 33.187 15.572 52.289.042 1.244-17.982 10.708-17.982 11.962l18.046 92.135v11.126c0 10.884-8.823 19.708-19.708 19.708h-176.838c-10.884 0-19.708-8.823-19.708-19.708v-111.475c0-20.515 5.713-39.695 15.635-56.037 3.565-5.871 5.46-12.602 5.46-19.471z"
              fill="#f4e9cd"/>
        <path d="m425.338 324.78c-3.565-5.871-5.459-12.602-5.459-19.47v-19.289l-15.434-26.216-25.147 26.216c.176 6.517 2.055 12.878 5.445 18.461 9.922 16.342 15.635 35.522 15.635 56.037v57.939c0 40.451-32.792 73.243-73.243 73.243h-102.414v.59c0 10.884 8.823 19.708 19.708 19.708h176.837c10.884 0 19.708-8.824 19.708-19.708v-11.126l-22.917-92.135c0-1.255 22.896-10.718 22.854-11.962-.652-19.101-6.257-36.945-15.573-52.288z"
              fill="#f4e9cd"/>
        <path d="m440.909 407.986v73.18h-90.117c-9.911 0-17.945-8.034-17.945-17.945v-55.235l60.566-8.975z"
              fill="#f4e9cd"/>
        <path d="m400.379 418.459c0 26.593-14.172 49.875-35.376 62.707h75.906v-73.18l-40.53-8.975z" fill="#f4e9cd"/>
        <g>
            <path d="m382.474 328.96h-99.254c-4.204 0-7.611-3.407-7.611-7.612s3.408-7.611 7.611-7.611h99.253c4.204 0 7.611 3.407 7.611 7.611s-3.407 7.612-7.61 7.612z"
                  fill="#f4e9cd"/>
        </g>
        <g fill="#90d8f9">
            <path d="m172.924 274.398h17.264v-15.223h-17.264c-4.204 0-7.611 3.407-7.611 7.612s3.407 7.611 7.611 7.611z"/>
            <path d="m159.223 239.411c0 4.204 3.408 7.611 7.611 7.611h23.353v-15.222h-23.353c-4.203 0-7.611 3.407-7.611 7.611z"/>
            <path d="m172.924 219.647h17.264v-15.223h-17.264c-4.204 0-7.611 3.407-7.611 7.611s3.407 7.612 7.611 7.612z"/>
            <path d="m159.223 184.661c0 4.204 3.408 7.611 7.611 7.611h23.353v-15.222h-23.353c-4.203 0-7.611 3.407-7.611 7.611z"/>
            <path d="m190.188 313.926h-17.264c-4.204 0-7.611 3.407-7.611 7.612s3.408 7.611 7.611 7.611h17.264z"/>
            <path d="m166.834 301.773h23.353v-15.223h-23.353c-4.204 0-7.611 3.407-7.611 7.612s3.408 7.611 7.611 7.611z"/>
        </g>
        <path d="m116.731 405.783h61.846c6.412 0 11.61-5.198 11.61-11.61v-25.505c0-6.412-5.198-11.61-11.61-11.61h-61.842c-6.412 0-11.61 5.198-11.61 11.61v25.51c.001 6.409 5.197 11.605 11.606 11.605z"
              fill="#665e66"/>
        <path d="m80.89 76.477h133.533c5.448 0 9.864 4.416 9.864 9.864v6.198c0 5.448-4.416 9.864-9.864 9.864h-133.533c-5.448 0-9.864-4.416-9.864-9.864v-6.198c0-5.448 4.417-9.864 9.864-9.864z"
              fill="#e4f6ff"/>
        <path d="m243.261 286.022h179.171c3.723 0 6.741-3.018 6.741-6.741v-43.789c0-3.723-3.018-6.741-6.741-6.741h-179.171c-3.723 0-6.741 3.018-6.741 6.741v43.789c0 3.723 3.018 6.741 6.741 6.741z"
              fill="#c6c1c8"/>
        <path d="m422.433 228.751h-33.854v6.54c0 16.808-13.625 30.433-30.433 30.433h-121.626v13.556c0 3.723 3.018 6.741 6.741 6.741h179.171c3.723 0 6.741-3.018 6.741-6.741v-43.788c.001-3.723-3.017-6.741-6.74-6.741z"
              fill="#afaab4"/>
        <path d="m332.847 395.014c0-9.91 8.034-17.945 17.945-17.945h90.117v30.917h-108.062z" fill="#f4e9cd"/>
        <path d="m400.379 377.069h40.53v30.917h-40.53z" fill="#f4e9cd"/>
    </g>
</svg>