<?xml version="1.0" standalone="no"?>
<!DOCTYPE svg PUBLIC "-//W3C//DTD SVG 20010904//EN"
 "http://www.w3.org/TR/2001/REC-SVG-20010904/DTD/svg10.dtd">
<svg version="1.0" xmlns="http://www.w3.org/2000/svg"
 width="1280.000000pt" height="1280.000000pt" viewBox="0 0 1280.000000 1280.000000"
 preserveAspectRatio="xMidYMid meet">
<metadata>
Created by potrace 1.16, written by Peter Selinger 2001-2019
</metadata>
<g transform="translate(0.000000,1280.000000) scale(0.100000,-0.100000)"
fill="#000000" stroke="none">
<path d="M5995 12794 c-781 -61 -1435 -215 -2100 -497 -1126 -478 -2103 -1281
-2797 -2302 -640 -942 -1011 -2024 -1089 -3180 -17 -251 -6 -839 20 -1075 72
-667 222 -1250 474 -1845 476 -1125 1281 -2103 2302 -2797 902 -613 1901 -969
3035 -1080 214 -21 959 -18 1175 5 1050 111 1970 428 2830 976 774 493 1464
1182 1955 1953 488 768 803 1609 934 2493 53 363 61 479 61 950 0 448 -4 522
-46 845 -148 1147 -610 2236 -1334 3145 -302 379 -651 728 -1030 1030 -867
691 -1910 1148 -3000 1315 -338 51 -489 62 -925 65 -228 1 -437 1 -465 -1z
m630 -3703 c58 -22 106 -69 1243 -1205 1288 -1286 1227 -1220 1253 -1361 45
-244 -202 -491 -446 -446 -136 25 -88 -18 -1017 910 l-858 856 0 -2110 c0
-1363 -4 -2135 -10 -2180 -6 -38 -21 -93 -35 -122 -32 -70 -120 -157 -192
-191 -52 -24 -70 -27 -163 -27 -93 0 -111 3 -163 27 -72 34 -160 121 -192 191
-14 29 -29 84 -35 122 -6 45 -10 817 -10 2180 l0 2110 -857 -856 c-935 -933
-884 -887 -1023 -910 -243 -39 -485 205 -441 446 26 138 -48 58 1230 1338 647
648 1191 1187 1209 1199 73 45 137 57 297 54 128 -2 159 -6 210 -25z"/>
</g>
</svg>
