<?xml version="1.0" standalone="no"?>
<!DOCTYPE svg PUBLIC "-//W3C//DTD SVG 20010904//EN"
        "http://www.w3.org/TR/2001/REC-SVG-20010904/DTD/svg10.dtd">
<svg version="1.0" xmlns="http://www.w3.org/2000/svg"
     fill="#031926" width="1280.000000pt" height="1280.000000pt" viewBox="0 0 1280.000000 1280.000000"
     preserveAspectRatio="xMidYMid meet">
    <metadata>
        Created by potrace 1.16, written by Peter Selinger 2001-2019
    </metadata>
    <g transform="translate(0.000000,1280.000000) scale(0.100000,-0.100000)"
       fill="#000000" stroke="none">
        <path d="M5995 12794 c-932 -72 -1720 -287 -2490 -679 -754 -384 -1415 -903
-1963 -1540 -787 -913 -1301 -2036 -1476 -3220 -53 -363 -61 -479 -61 -950 0
-448 4 -522 46 -845 161 -1249 692 -2420 1533 -3385 124 -142 419 -438 566
-568 939 -829 2076 -1361 3295 -1541 365 -54 478 -61 955 -61 477 0 590 7 955
61 1121 166 2181 633 3075 1354 324 262 687 625 949 950 838 1037 1322 2275
1412 3615 17 251 6 839 -20 1075 -106 973 -396 1841 -889 2655 -422 697 -984
1317 -1647 1816 -834 628 -1859 1056 -2887 1204 -350 50 -452 57 -888 60 -228
1 -437 1 -465 -1z m568 -3237 c72 -33 160 -120 192 -190 14 -29 29 -84 35
-122 6 -45 10 -817 10 -2180 l0 -2110 858 856 c934 933 883 887 1022 910 245
39 485 -205 441 -448 -26 -139 33 -75 -1253 -1359 -1377 -1375 -1201 -1228
-1468 -1228 -267 0 -91 -147 -1468 1228 -1288 1286 -1227 1220 -1253 1361 -45
244 202 491 446 446 136 -25 88 18 1018 -910 l857 -856 0 2110 c0 1363 4 2135
10 2180 23 155 120 276 263 327 78 28 213 21 290 -15z"/>
    </g>
</svg>
